# xmcd
#
# Track frame offsets:
#	150
#	1293
#	16698
#	58226
#	62878
#	75812
#	117029
#	127848
#	131545
#	162011
#	163698
#	178499
#
# Disc length: 3146 seconds
#
# Revision: 0
# Processed by: cddbd v1.5.2PL0 Copyright (c) Steve Scherf et al.
# Submitted via: EasyCDDAExtractor 12.1.0.1
#
DISCID=8c0c480c
DTITLE=Various Artist - GERALDINHO TROVA PROSA VIOLA-VOL-01-2001/01/06/2010
DYEAR=2001
DGENRE=CAUSOS
TTITLE0=HAMILTON CARNEIRO - INTRODUÇÃO A FOLIA DO DIVINO (BY DJ GILMAR SINISTR
TTITLE0=O)
TTITLE1=ANDRÉ and ANDRADE,GERALDINHO and HAMILTON CARNEIRO - FOLIA DO DIVINO (BY D
TTITLE1=J GILMAR SINISTRO)
TTITLE2=GERALDINHO - A NAMORADINHA (BY DJ GILMAR SINISTRO)
TTITLE3=HAMILTON CARNEIRO - MARIINHA (BY DJ GILMAR SINISTRO)
TTITLE4=ANDRÉ and ANDRADE - MARIINHA (BY DJ GILMAR SINISTRO)
TTITLE5=GERALDINHO - O OSSO (BY DJ GILMAR SINISTRO)
TTITLE6=HAMILTON CARNEIRO - DEZ MARIAS (BY DJ GILMAR SINISTRO)
TTITLE7=ANDRÉ and ANDRADE - MARIMBONDO (BY DJ GILMAR SINISTRO)
TTITLE8=GERALDINHO - O CAUSO DO MARIMBONDO (BY DJ GILMAR SINISTRO)
TTITLE9=HAMILTON CARNEIRO - MÃE (BY DJ GILMAR SINISTRO)
TTITLE10=ANDRÉ and ANDRADE - INVENCIONICE (BY DJ GILMAR SINISTRO)
TTITLE11=GERALDINHO - O CAUSO DA BICICLETA (BY DJ GILMAR SINISTRO)
EXTD=
EXTT0=
EXTT1=
EXTT2=
EXTT3=
EXTT4=
EXTT5=
EXTT6=
EXTT7=
EXTT8=
EXTT9=
EXTT10=
EXTT11=
PLAYORDER=
